<?xml version="1.0" standalone="no"?>
<!DOCTYPE svg PUBLIC "-//W3C//DTD SVG 20010904//EN"
 "http://www.w3.org/TR/2001/REC-SVG-20010904/DTD/svg10.dtd">
<svg version="1.0" xmlns="http://www.w3.org/2000/svg"
 width="700.000000pt" height="700.000000pt" viewBox="0 0 700.000000 700.000000"
 preserveAspectRatio="xMidYMid meet">
<metadata>
Created by potrace 1.11, written by Peter Selinger 2001-2013
</metadata>
<g transform="translate(0.000000,700.000000) scale(0.100000,-0.100000)"
fill="#000000" stroke="none">
<path d="M243 6972 c-154 -55 -245 -190 -239 -354 7 -195 159 -340 357 -340
167 0 317 125 347 290 28 158 -54 320 -196 388 -76 36 -193 43 -269 16z"/>
<path d="M3383 6972 c-51 -18 -112 -58 -147 -96 -157 -174 -105 -455 104 -561
247 -124 537 72 514 349 -10 124 -90 239 -204 293 -74 35 -191 42 -267 15z"/>
<path d="M6534 6976 c-86 -29 -171 -102 -213 -183 -23 -46 -42 -140 -35 -180
13 -83 18 -101 39 -142 55 -108 181 -190 297 -193 79 -2 118 7 189 43 210 105
250 401 78 570 -62 61 -138 92 -233 95 -49 2 -97 -2 -122 -10z"/>
<path d="M1025 6199 c-38 -64 -147 -175 -219 -223 -31 -20 -56 -39 -56 -41 0
-8 1000 -1005 1007 -1005 5 0 23 25 41 56 46 75 128 161 201 209 33 22 61 42
61 45 0 3 -226 231 -502 507 l-503 502 -30 -50z"/>
<path d="M5435 5740 c-400 -400 -497 -503 -484 -510 93 -54 210 -170 262 -260
12 -22 25 -40 29 -40 8 0 1008 996 1008 1003 0 2 -24 20 -54 40 -55 36 -206
183 -206 200 0 12 -39 67 -48 67 -4 0 -232 -225 -507 -500z"/>
<path d="M3282 5598 l3 -273 218 -2 217 -2 0 275 c0 151 -1 274 -2 274 -2 0
-35 -6 -74 -14 -68 -13 -230 -14 -284 -2 -14 3 -37 8 -53 12 l-27 6 2 -274z"/>
<path d="M2321 4867 c-79 -20 -156 -98 -181 -183 -8 -29 -10 -345 -8 -1194 l3
-1155 25 -49 c14 -27 42 -64 64 -82 78 -67 8 -63 1274 -64 1297 0 1208 -5
1292 79 85 85 79 -9 77 1304 -2 1111 -3 1164 -21 1199 -26 53 -73 102 -126
129 l-45 24 -1160 1 c-656 0 -1175 -3 -1194 -9z m1957 -472 c56 -26 104 -80
121 -135 8 -27 11 -241 11 -753 -1 -788 1 -772 -62 -836 -69 -70 -14 -66 -828
-68 -480 -2 -748 1 -773 8 -43 11 -108 66 -134 112 -17 30 -18 83 -20 772 -1
450 3 753 8 774 14 47 96 126 145 138 23 6 325 10 761 10 l723 0 48 -22z"/>
<path d="M3035 3972 c-3 -3 -5 -214 -5 -469 l0 -463 470 0 470 0 0 468 0 468
-465 1 c-256 0 -467 -2 -470 -5z"/>
<path d="M241 3845 c-173 -63 -268 -232 -231 -412 26 -126 112 -220 240 -263
53 -18 78 -21 134 -16 195 18 329 166 328 362 -1 241 -244 411 -471 329z"/>
<path d="M6560 3856 c-138 -38 -233 -133 -263 -263 -50 -216 96 -419 316 -440
244 -22 433 206 374 454 -25 104 -130 208 -252 248 -39 13 -131 13 -175 1z"/>
<path d="M1135 3693 c4 -21 9 -49 12 -63 11 -50 4 -236 -10 -287 l-14 -53 283
0 284 0 0 220 0 220 -281 0 -281 0 7 -37z"/>
<path d="M5310 3510 l0 -220 281 0 281 0 -7 38 c-18 96 -22 138 -19 211 2 43
8 98 13 122 6 24 11 50 11 57 0 9 -63 12 -280 12 l-280 0 0 -220z"/>
<path d="M1253 1574 c-277 -277 -503 -505 -503 -507 0 -3 24 -20 53 -39 73
-50 184 -160 216 -215 6 -10 18 -27 26 -38 15 -18 38 4 520 485 278 278 505
508 505 512 0 3 -19 17 -42 31 -67 39 -171 140 -218 212 -24 36 -46 65 -49 64
-3 0 -232 -228 -508 -505z"/>
<path d="M5190 2015 c-47 -72 -132 -155 -209 -206 -28 -18 -51 -35 -51 -38 0
-8 1004 -1011 1011 -1011 3 0 20 22 38 49 44 69 145 171 214 216 31 21 57 39
57 42 0 4 -1009 1013 -1014 1013 -2 0 -23 -29 -46 -65z"/>
<path d="M3280 1413 l0 -284 38 7 c20 3 53 10 73 14 49 10 235 4 279 -9 19 -6
38 -11 42 -11 5 0 8 128 8 284 l0 283 -220 0 -220 0 0 -284z"/>
<path d="M320 722 c-97 -12 -190 -66 -249 -145 -133 -177 -67 -434 137 -534
50 -25 68 -28 152 -28 85 0 101 3 148 28 142 75 215 202 205 357 -5 61 -39
145 -79 193 -73 88 -207 143 -314 129z"/>
<path d="M3450 720 c-95 -12 -199 -80 -253 -163 -113 -174 -41 -416 151 -513
51 -26 67 -29 152 -29 84 0 102 4 152 29 154 76 235 248 193 412 -45 175 -215
288 -395 264z"/>
<path d="M6544 709 c-318 -99 -350 -522 -50 -665 63 -31 76 -33 155 -31 72 2
96 7 144 31 73 35 138 101 173 174 38 80 42 194 9 275 -71 175 -260 269 -431
216z"/>
</g>
</svg>
